<svg id="Layer_1" data-name="Layer 1"
  xmlns="http://www.w3.org/2000/svg" viewBox="0 0 324.15 320.47">
  <defs>
    <style>.cls-1{fill:#e56539;}</style>
  </defs>
  <path class="cls-1" d="M795,828c4.77-14.28,7.15-29.53,5.62-44.58-.77-7.56-2.42-15.48-6.1-22.2a106.31,106.31,0,0,0-6.71-10.39c-2.24,11.44-8.47,19.93-17,28.48-4.83,4.86-12.33-2.65-7.51-7.51,7.79-7.84,14.21-15.68,14.64-27.21.27-7,.31-14.46-2-21.14-2.07-6-6.18-11-8.88-16.69-2.91-6.16,6.24-11.55,9.16-5.36,3.35,7.11,8.52,13.13,10.45,20.91a71.74,71.74,0,0,1,1.83,11.42,5.61,5.61,0,0,1,1.52,1.64c5.07,8.23,11.6,15.56,15.49,24.47a66.42,66.42,0,0,1,4,12.38c10.33-23,7.6-50,5-74.88-1.68-15.85-4.56-32.23-14.14-45.43-3.39-4.67-7.37-9.28-12.69-11.8s-11-2.86-16.69-2.91H771a52.8,52.8,0,0,1-5.86,12.59c-9,14.05-21.89,20.48-37.25,25.79-6.49,2.25-9.25-8-2.83-10.23,12.36-4.27,23.92-9.23,30.92-20.92,6.15-10.27,9-22.8,6.08-34.64-2.6-10.52-8.17-20.17-17.16-26.53-4.55-3.22-9.62-7.77-15.59-7.27-3,.25-8.4.4-10.39,3a32.36,32.36,0,0,1,1.89,10.75c0,6.85-10.56,6.84-10.61,0,0-8.24-4.12-16-11.95-19.33-6.66-2.84-15.63-1.89-20.56,3.74-8.85,10.1-8.86,26.64-8.89,39.3v98.55c11.77-3.43,16.75-13.44,19.39-25.48,1.46-6.69,11.69-3.85,10.23,2.82-3.56,16.29-12.27,30.42-29.62,33.58v28.1c17-.26,36.36-.41,46.55,15.66,8.32,13.12,8.06,33.23-7.41,40.89-5.88,2.9-11-5.9-5.15-8.82,10.58-5.23,9.85-20.59,2.52-28.54-9.42-10.21-23.55-9.45-36.51-9v92.87c.45,20.67,25.42,40.14,41.79,34.19,10.24-3.73,15.69-14.1,16.26-24.6.51-9.22-.91-25.18-12-27.47-6.7-1.37-3.85-11.61,2.83-10.23,9.39,1.93,15,9.81,17.76,18.78,9.68-7.58,18-16.2,18-29.59,0-6.84,10.63-6.84,10.61,0,0,19-12.39,30.67-26.48,41.24a49.58,49.58,0,0,1,0,6,52.52,52.52,0,0,1-1.37,9.45C762.18,869.47,786.45,853.69,795,828ZM712.79,638.32c-8.74,4.42-19.64,5.52-26.93-2.16-4.53-4.77,2.68-12,7.22-7.21,4.16,4.37,11.08,2.91,15.7-.1,5.75-3.74,6-8.92,5.19-15.18-.79-6.53,9.43-6.45,10.21,0C725.41,623.77,722.46,633.44,712.79,638.32Z" transform="translate(-492.8 -568.92)"/>
  <path class="cls-1" d="M611.55,570.47c-7.82,3.34-11.9,11.09-11.95,19.33,0,6.84-10.66,6.85-10.61,0a32.07,32.07,0,0,1,1.9-10.75c-2-2.65-7.45-2.8-10.39-3-6-.5-11,4-15.6,7.27-9,6.36-14.55,16-17.16,26.53-2.92,11.84-.07,24.37,6.08,34.64,7,11.69,18.57,16.65,30.92,20.92,6.42,2.22,3.66,12.48-2.82,10.23-15.37-5.31-28.25-11.74-37.26-25.79a52.77,52.77,0,0,1-5.85-12.59h-.07c-5.69,0-11.47.43-16.69,2.91s-9.3,7.13-12.69,11.8c-9.58,13.2-12.46,29.58-14.14,45.43-2.63,24.89-5.37,51.85,5,74.88a67.17,67.17,0,0,1,4-12.38c3.9-8.91,10.42-16.24,15.49-24.47a5.75,5.75,0,0,1,1.52-1.64A71.74,71.74,0,0,1,523,722.32c1.93-7.78,7.1-13.8,10.45-20.91,2.92-6.19,12.07-.8,9.17,5.36-2.71,5.73-6.82,10.65-8.89,16.69-2.29,6.68-2.24,14.16-2,21.14.42,11.53,6.85,19.37,14.64,27.21,4.82,4.86-2.68,12.37-7.51,7.51-8.5-8.55-14.73-17-17-28.48a106.31,106.31,0,0,0-6.71,10.39c-3.67,6.72-5.33,14.64-6.09,22.2-1.54,15.05.84,30.3,5.61,44.58,8.58,25.68,32.86,41.46,58.91,43.83a54.37,54.37,0,0,1-1.37-9.45,51.75,51.75,0,0,1,0-6c-14.09-10.57-26.45-22.22-26.48-41.24,0-6.84,10.6-6.84,10.62,0,0,13.39,8.29,22,18,29.59,2.79-9,8.38-16.85,17.77-18.78,6.68-1.38,9.52,8.86,2.82,10.23-11.14,2.29-12.56,18.25-12,27.47.57,10.5,6,20.87,16.27,24.6,16.36,6,41.33-13.52,41.78-34.19V761.34c-13.52-.29-30.71-2.54-40.33,8.93-6.9,8.24-8.4,23.14,2.52,28.54,5.9,2.92.73,11.72-5.15,8.82-15-7.44-16.31-28.1-7.41-40.89,11.85-17,31.93-15.79,50.37-15.6V723c-17.35-3.16-26-17.29-29.62-33.58-1.46-6.67,8.77-9.51,10.24-2.82,2.63,12,7.61,22,19.38,25.48V613.51c0-12.66,0-29.2-8.89-39.3C627.18,568.58,618.21,567.63,611.55,570.47ZM624,636.16c-7,7.4-18.5,7-26.93,2.16-9.48-5.45-12.67-14.12-11.39-24.65.78-6.45,11-6.53,10.21,0-.73,6-.69,11.8,5.19,15.18,4.81,2.77,11.39,4.64,15.7.1C621.28,624.17,628.49,631.39,624,636.16Z" transform="translate(-492.8 -568.92)"/>
</svg>