<svg xmlns="http://www.w3.org/2000/svg" width="30" height="51" viewBox="0 0 30 51">
  <g id="Group_15" data-name="Group 15" transform="translate(0.469 0.25)">
    <path id="Polygon_12" data-name="Polygon 12" d="M10.026,1.41a.5.5,0,0,1,.948,0l2.04,6.068a.5.5,0,0,0,.461.341l6.167.166a.5.5,0,0,1,.3.889L15,12.852a.5.5,0,0,0-.167.525L16.6,19.616a.5.5,0,0,1-.774.541l-5.031-3.641a.5.5,0,0,0-.586,0L5.176,20.157a.5.5,0,0,1-.774-.541l1.761-6.239A.5.5,0,0,0,6,12.852L1.058,8.874a.5.5,0,0,1,.3-.889l6.167-.166a.5.5,0,0,0,.461-.341Z" transform="translate(4.531 13.75)" fill="#fff"/>
  </g>
</svg>
