<svg xmlns="http://www.w3.org/2000/svg" width="30" height="51" viewBox="0 0 30 51">
  <g id="Group_16" data-name="Group 16" transform="translate(0.406 0.25)">
    <g id="Group_13" data-name="Group 13" transform="translate(7.031 8.438)">
      <path id="Polygon_13" data-name="Polygon 13" d="M7.529,1.313a.5.5,0,0,1,.941,0L9.884,5.256a.5.5,0,0,0,.458.331l4.227.107a.5.5,0,0,1,.289.9L11.514,9.118a.5.5,0,0,0-.177.543l1.2,3.99a.5.5,0,0,1-.759.558l-3.5-2.373a.5.5,0,0,0-.561,0l-3.5,2.373a.5.5,0,0,1-.759-.558l1.2-3.99a.5.5,0,0,0-.177-.543L1.142,6.592a.5.5,0,0,1,.289-.9l4.227-.107a.5.5,0,0,0,.458-.331Z" transform="translate(-0.437 0.313)" fill="#fff"/>
      <path id="Polygon_15" data-name="Polygon 15" d="M7.529,1.313a.5.5,0,0,1,.941,0L9.884,5.256a.5.5,0,0,0,.458.331l4.227.107a.5.5,0,0,1,.289.9L11.514,9.118a.5.5,0,0,0-.177.543l1.2,3.99a.5.5,0,0,1-.759.558l-3.5-2.373a.5.5,0,0,0-.561,0l-3.5,2.373a.5.5,0,0,1-.759-.558l1.2-3.99a.5.5,0,0,0-.177-.543L1.142,6.592a.5.5,0,0,1,.289-.9l4.227-.107a.5.5,0,0,0,.458-.331Z" transform="translate(-0.437 18.313)" fill="#fff"/>
    </g>
  </g>
</svg>
