<svg xmlns="http://www.w3.org/2000/svg" width="30" height="51" viewBox="0 0 30 51">
  <g id="Group_17" data-name="Group 17" transform="translate(0.344 0.25)">
    <g id="Group_14" data-name="Group 14" transform="translate(5.625 5.625)">
      <path id="Polygon_14" data-name="Polygon 14" d="M8.026,1.41a.5.5,0,0,1,.948,0l1.54,4.581a.5.5,0,0,0,.461.341l4.667.125a.5.5,0,0,1,.3.889L12.2,10.365a.5.5,0,0,0-.167.525l1.334,4.726a.5.5,0,0,1-.774.541l-3.8-2.746a.5.5,0,0,0-.586,0l-3.8,2.746a.5.5,0,0,1-.774-.541L4.972,10.89a.5.5,0,0,0-.167-.525L1.058,7.346a.5.5,0,0,1,.3-.889l4.667-.125a.5.5,0,0,0,.461-.341Z" transform="translate(0.031 11.125)" fill="#fff"/>
      <path id="Polygon_16" data-name="Polygon 16" d="M5.522,1.539a.5.5,0,0,1,.955,0l.917,2.954a.5.5,0,0,0,.463.352l2.867.084a.5.5,0,0,1,.314.876L8.66,7.881a.5.5,0,0,0-.155.5l.829,3.183a.5.5,0,0,1-.792.52L6.308,10.335a.5.5,0,0,0-.617,0L3.458,12.086a.5.5,0,0,1-.792-.52l.829-3.183a.5.5,0,0,0-.155-.5L.961,5.8a.5.5,0,0,1,.314-.876l2.867-.084a.5.5,0,0,0,.463-.352Z" transform="translate(3.031 0.125)" fill="#fff"/>
      <path id="Polygon_17" data-name="Polygon 17" d="M5.526,1.41a.5.5,0,0,1,.948,0l.915,2.721a.5.5,0,0,0,.461.341l2.792.075a.5.5,0,0,1,.3.889L8.684,7.255a.5.5,0,0,0-.167.525l.8,2.835a.5.5,0,0,1-.774.541L6.293,9.529a.5.5,0,0,0-.586,0l-2.25,1.628a.5.5,0,0,1-.774-.541l.8-2.835a.5.5,0,0,0-.167-.525L1.058,5.436a.5.5,0,0,1,.3-.889l2.792-.075a.5.5,0,0,0,.461-.341Z" transform="translate(3.031 27.125)" fill="#fff"/>
    </g>
  </g>
</svg>
