<?xml version="1.0" encoding="utf-8"?>
<!-- Generator: Adobe Illustrator 25.0.1, SVG Export Plug-In . SVG Version: 6.00 Build 0)  -->
<svg version="1.1" id="Layer_1" xmlns="http://www.w3.org/2000/svg" xmlns:xlink="http://www.w3.org/1999/xlink" x="0px" y="0px"
	 viewBox="0 0 352 352" style="enable-background:new 0 0 352 352;" xml:space="preserve">
<path d="M247,340c15.3-15.5,17-14.2,38.8-20.1c13.9-3.8,24.8-14.8,28.5-29c7.5-28.4,5.5-25,26-45.8c10.2-10.4,14.1-25.4,10.4-39.6
	c-7.5-28.4-7.5-24.4,0-52.8c3.7-14.1-0.2-29.2-10.4-39.6c-20.4-20.8-18.5-17.4-26-45.8c-3.7-14.1-14.6-25.2-28.5-29
	c-27.9-7.6-24.5-5.6-45-26.4c-10.2-10.4-25-14.4-38.9-10.6C174.1,9,178,9,150,1.4c-13.9-3.8-28.7,0.2-38.9,10.6
	C90.7,32.8,94.1,30.8,66.2,38.4c-13.9,3.8-24.8,14.8-28.5,29c-7.5,28.4-5.5,25-25.9,45.8C1.6,123.5-2.4,138.6,1.4,152.7
	c7.5,28.4,7.5,24.4,0,52.8c-3.7,14.1,0.2,29.2,10.4,39.6c20.4,20.8,18.5,17.4,25.9,45.8c3.7,14.1,14.6,25.2,28.5,29
	C88.6,326,90.3,325,105,340c13.2,13.5,33.8,15.9,49.7,5.8c13-8.2,29.6-8.2,42.5,0C213.2,355.9,233.8,353.5,247,340z M81.7,176
	c0-53,42.2-96,94.3-96s94.3,43,94.3,96s-42.2,96-94.3,96S81.7,229,81.7,176L81.7,176z"/>
</svg>
