<?xml version="1.0" encoding="UTF-8"?><svg id="Layer_1" xmlns="http://www.w3.org/2000/svg" viewBox="0 0 476.43 476.46"><defs><style>.cls-1{fill:#fff;}.cls-2{fill:#0dcaf0;}</style></defs><rect class="cls-2" width="476.43" height="476.46"/><rect class="cls-1" x="28.86" y="28.43" width="419.57" height="419.6" rx="22.34" ry="22.34"/><path class="cls-2" d="M185.88,202c5.91-5.91,11.65-11.68,17.42-17.43,4.39-4.37,10.4-5.75,15.45-3.61,8.61,3.66,10.4,14.72,3.45,21.85-5.28,5.42-10.67,10.75-16.07,16.06-1.12,1.1-1.64,1.7-.16,3.11,5.54,5.31,10.96,10.74,16.27,16.27,1.39,1.45,1.99,1,3.11-.15,5.23-5.34,10.53-10.61,15.84-15.87,4.47-4.43,10.5-5.66,15.71-3.27,8.37,3.83,9.89,14.69,2.97,21.75-5.71,5.83-11.51,11.58-17.26,17.36-.06,.06-.07,.16-.23,.52,.87,.78,1.75,1.73,2.79,2.47,4.01,2.88,4.36,10.83,.24,14.85-7.75,7.55-15.13,15.48-23.03,22.87-8.61,8.06-18.85,12.77-30.73,14.17-11.28,1.33-21.77-.57-31.66-5.96-2.11-1.15-3.42-.88-5.12,.88-6.34,6.59-12.83,13.04-19.37,19.44-5.09,4.98-11.65,5.94-17.4,2.06-5.15-3.46-7.05-10.18-4.42-15.86,.86-1.85,1.98-3.53,3.45-4.99,6.55-6.52,13.04-13.11,19.65-19.57,1.4-1.37,1.71-2.31,.68-4.14-4.86-8.64-7.09-18-6.62-27.88,.58-12.22,4.51-23.21,12.62-32.58,7.78-9,16.61-16.97,24.93-25.44,4.3-4.38,10.44-4.16,14.77,.18,.9,.9,1.75,1.86,2.73,2.91Z"/><path class="cls-2" d="M292.1,97.41c8.99,.28,17.67,1.86,25.56,6.48,1.87,1.09,3.17,1.13,4.9-.69,6.37-6.69,12.96-13.18,19.55-19.65,4.86-4.78,11.62-5.98,17.65-1.88,4.26,2.9,6.89,10.11,4.16,15.72-.89,1.83-1.99,3.53-3.46,4.99-6.55,6.52-13.03,13.1-19.64,19.56-1.4,1.36-1.73,2.3-.68,4.14,4.9,8.62,7.06,18.02,6.6,27.87-.57,12.19-4.52,23.16-12.55,32.6-5.1,5.99-10.85,11.33-16.4,16.86-8.54,8.52-23.28,8.84-32.01-.14-15.01-15.43-30.39-30.5-45.61-45.73-7.23-7.24-8.14-20.56-1.43-28.36,7.63-8.87,15.54-17.55,25.56-23.88,6.54-4.13,13.7-6.49,21.41-7.34,2.13-.24,4.23-.56,6.39-.55Z"/><path class="cls-2" d="M86.65,403.63v-34.46h6.16v34.46h-6.16Zm3.58,0v-5.95h6.33c1.47,0,2.6-.38,3.4-1.15,.8-.77,1.2-1.83,1.2-3.19v-13.89c0-1.37-.4-2.44-1.2-3.2-.8-.76-1.93-1.14-3.4-1.14h-6.33v-5.95h6.54c3.41,0,6.05,.88,7.92,2.63,1.86,1.75,2.8,4.22,2.8,7.4v14.41c0,2.04-.41,3.81-1.22,5.31-.81,1.5-2.01,2.66-3.6,3.48-1.59,.82-3.56,1.23-5.91,1.23h-6.52Z"/><path class="cls-2" d="M118.9,403.99c-2.23,0-3.91-.61-5.05-1.84-1.14-1.22-1.71-3.05-1.71-5.49s.71-4.46,2.14-5.76c1.43-1.3,3.54-1.94,6.32-1.94h3.98l.33,4.81h-4.15c-.98,0-1.71,.24-2.2,.72-.49,.48-.74,1.21-.74,2.17,0,.76,.24,1.33,.71,1.71,.47,.38,1.15,.57,2.04,.57,1.28,0,2.24-.21,2.89-.64,.65-.43,.97-1.07,.97-1.92l.45,2.82c-.06,1.06-.38,1.94-.94,2.65-.56,.71-1.28,1.24-2.16,1.6s-1.85,.53-2.9,.53Zm5.55-.36v-16.64c0-.88-.28-1.57-.83-2.05-.55-.48-1.33-.72-2.35-.72-.74,0-1.42,.16-2.01,.49-.6,.32-1.08,.79-1.45,1.39l-4.81-1.97c.49-1.74,1.46-3.09,2.92-4.05,1.45-.96,3.26-1.45,5.43-1.45,2.8,0,4.96,.72,6.51,2.17,1.54,1.45,2.31,3.48,2.31,6.1v16.73h-5.71Z"/><path class="cls-2" d="M133.84,384.48v-5.45h11.57v5.45h-11.57Zm8.65,19.27c-2.23,0-3.84-.56-4.85-1.68-1-1.12-1.5-2.73-1.5-4.83v-25.36h6.19v24.08c0,.55,.13,.99,.38,1.3,.25,.32,.61,.47,1.07,.47h1.64v6.02h-2.92Z"/><path class="cls-2" d="M156,403.99c-2.23,0-3.91-.61-5.05-1.84-1.14-1.22-1.71-3.05-1.71-5.49s.71-4.46,2.14-5.76c1.43-1.3,3.54-1.94,6.32-1.94h3.98l.33,4.81h-4.15c-.98,0-1.71,.24-2.2,.72-.49,.48-.74,1.21-.74,2.17,0,.76,.24,1.33,.71,1.71,.47,.38,1.15,.57,2.04,.57,1.28,0,2.24-.21,2.89-.64,.65-.43,.97-1.07,.97-1.92l.45,2.82c-.06,1.06-.38,1.94-.94,2.65-.56,.71-1.28,1.24-2.16,1.6s-1.85,.53-2.9,.53Zm5.55-.36v-16.64c0-.88-.28-1.57-.83-2.05-.55-.48-1.33-.72-2.35-.72-.74,0-1.42,.16-2.01,.49-.6,.32-1.08,.79-1.45,1.39l-4.81-1.97c.49-1.74,1.46-3.09,2.92-4.05,1.45-.96,3.26-1.45,5.43-1.45,2.8,0,4.96,.72,6.51,2.17,1.54,1.45,2.31,3.48,2.31,6.1v16.73h-5.71Z"/><path class="cls-2" d="M184.35,403.61v-34.44h6.26l10.48,24.67-.62,.78v-25.46h5.78v34.44h-6.33l-10.38-23.82,.57-.78v24.6h-5.76Z"/><path class="cls-2" d="M220.44,403.99c-2.86,0-5.08-.76-6.65-2.28-1.57-1.52-2.36-3.66-2.36-6.42v-8.06c0-2.75,.79-4.87,2.36-6.36s3.79-2.24,6.65-2.24,5.05,.75,6.61,2.24,2.35,3.61,2.35,6.36v8.13c0,2.75-.78,4.88-2.35,6.38s-3.77,2.25-6.61,2.25Zm-.02-5.76c.9,0,1.6-.27,2.1-.82s.75-1.31,.75-2.29v-7.68c0-.96-.25-1.71-.75-2.25-.5-.54-1.2-.81-2.1-.81s-1.6,.27-2.1,.81c-.5,.54-.75,1.29-.75,2.25v7.68c0,.98,.25,1.74,.75,2.29s1.2,.82,2.1,.82Z"/><path class="cls-2" d="M232.58,384.48v-5.45h11.57v5.45h-11.57Zm8.65,19.27c-2.23,0-3.84-.56-4.85-1.68-1-1.12-1.5-2.73-1.5-4.83v-25.36h6.19v24.08c0,.55,.13,.99,.38,1.3,.25,.32,.61,.47,1.07,.47h1.64v6.02h-2.92Z"/><path class="cls-2" d="M260.29,403.63v-34.46h6.16v34.46h-6.16Zm2.63,0v-5.95h16.31v5.95h-16.31Z"/><path class="cls-2" d="M291.41,403.99c-2.86,0-5.08-.76-6.65-2.28-1.57-1.52-2.36-3.66-2.36-6.42v-8.06c0-2.75,.79-4.87,2.36-6.36s3.79-2.24,6.65-2.24,5.05,.75,6.61,2.24,2.35,3.61,2.35,6.36v8.13c0,2.75-.78,4.88-2.35,6.38s-3.77,2.25-6.61,2.25Zm-.02-5.76c.9,0,1.6-.27,2.1-.82s.75-1.31,.75-2.29v-7.68c0-.96-.25-1.71-.75-2.25-.5-.54-1.2-.81-2.1-.81s-1.6,.27-2.1,.81c-.5,.54-.75,1.29-.75,2.25v7.68c0,.98,.25,1.74,.75,2.29s1.2,.82,2.1,.82Z"/><path class="cls-2" d="M311.41,403.99c-2.23,0-3.91-.61-5.05-1.84-1.14-1.22-1.71-3.05-1.71-5.49s.71-4.46,2.14-5.76c1.43-1.3,3.54-1.94,6.32-1.94h3.98l.33,4.81h-4.15c-.98,0-1.71,.24-2.2,.72-.49,.48-.74,1.21-.74,2.17,0,.76,.24,1.33,.71,1.71,.47,.38,1.15,.57,2.04,.57,1.28,0,2.24-.21,2.89-.64,.65-.43,.97-1.07,.97-1.92l.45,2.82c-.06,1.06-.38,1.94-.94,2.65-.56,.71-1.28,1.24-2.16,1.6s-1.85,.53-2.9,.53Zm5.55-.36v-16.64c0-.88-.28-1.57-.83-2.05-.55-.48-1.33-.72-2.35-.72-.74,0-1.42,.16-2.01,.49-.6,.32-1.08,.79-1.45,1.39l-4.81-1.97c.49-1.74,1.46-3.09,2.92-4.05,1.45-.96,3.26-1.45,5.43-1.45,2.8,0,4.96,.72,6.51,2.17,1.54,1.45,2.31,3.48,2.31,6.1v16.73h-5.71Z"/><path class="cls-2" d="M334.16,404.01c-2.09,0-3.7-.75-4.83-2.26-1.14-1.51-1.71-3.64-1.71-6.39v-8.01c0-2.78,.57-4.93,1.71-6.44,1.14-1.51,2.75-2.26,4.83-2.26,1.19,0,2.28,.39,3.28,1.17,1,.78,1.8,1.88,2.41,3.31l-.5,4.27c0-.68-.11-1.24-.33-1.69-.22-.45-.54-.8-.95-1.04-.41-.24-.91-.37-1.49-.37-.9,0-1.6,.31-2.11,.92-.51,.62-.76,1.49-.76,2.61v7.11c0,1.07,.25,1.91,.76,2.51,.5,.6,1.21,.9,2.11,.9,.58,0,1.08-.12,1.49-.36,.41-.24,.73-.58,.95-1.03,.22-.45,.33-1,.33-1.65l.33,4.46c-.46,1.33-1.17,2.37-2.13,3.12s-2.09,1.13-3.39,1.13Zm5.19-.38v-34.46h6.16v34.46h-6.16Z"/><path class="cls-2" d="M359.98,403.99c-3.02,0-5.36-.81-7.02-2.44-1.66-1.63-2.49-3.92-2.49-6.87v-6.28c0-3.1,.81-5.49,2.42-7.19,1.61-1.7,3.87-2.55,6.78-2.55s5.03,.94,6.6,2.81,2.36,4.52,2.36,7.93v4.29h-13.68v-4.34h7.87v-1.75c.03-1.04-.26-1.87-.88-2.48-.62-.61-1.37-.91-2.28-.91-1.06,0-1.89,.34-2.5,1.03s-.91,1.65-.91,2.88v6.71c0,1.2,.31,2.12,.94,2.76,.62,.64,1.5,.96,2.64,.96,.82,0,1.52-.21,2.1-.64s.98-1.05,1.22-1.87l5.19,1.99c-.47,1.98-1.42,3.46-2.84,4.47s-3.26,1.5-5.52,1.5Z"/><path class="cls-2" d="M379.53,404.01c-2.09,0-3.7-.75-4.83-2.26-1.14-1.51-1.71-3.64-1.71-6.39v-8.01c0-2.78,.57-4.93,1.71-6.44,1.14-1.51,2.75-2.26,4.83-2.26,1.19,0,2.28,.39,3.28,1.17,1,.78,1.8,1.88,2.41,3.31l-.5,4.27c0-.68-.11-1.24-.33-1.69-.22-.45-.54-.8-.95-1.04-.41-.24-.91-.37-1.49-.37-.9,0-1.6,.31-2.11,.92-.51,.62-.76,1.49-.76,2.61v7.11c0,1.07,.25,1.91,.76,2.51,.5,.6,1.21,.9,2.11,.9,.58,0,1.08-.12,1.49-.36,.41-.24,.73-.58,.95-1.03,.22-.45,.33-1,.33-1.65l.33,4.46c-.46,1.33-1.17,2.37-2.13,3.12s-2.09,1.13-3.39,1.13Zm5.19-.38v-34.46h6.16v34.46h-6.16Z"/></svg>