<?xml version="1.0" encoding="utf-8"?>
<!-- Generator: Adobe Illustrator 25.0.1, SVG Export Plug-In . SVG Version: 6.00 Build 0)  -->
<svg version="1.1" id="Layer_1" xmlns="http://www.w3.org/2000/svg" xmlns:xlink="http://www.w3.org/1999/xlink" x="0px" y="0px"
	 viewBox="0 0 100 100" style="enable-background:new 0 0 100 100;" xml:space="preserve">
<style type="text/css">
	.st0{opacity:0.5;fill:#263238;}
	.st1{opacity:0.5;fill:#37474F;}
	.st2{opacity:0.9;fill:#CDD6DA;}
	.st3{opacity:0.9;fill:#EBECED;}
	.st4{fill:#468DC9;}
	.st5{opacity:0.85;fill:#CDD6DA;}
	.st6{opacity:0.85;fill:#EBECED;}
</style>
<path class="st0" d="M59.59,83.74c-2.54,1.44-5.08,2.9-7.63,4.32c-0.63,0.35-1.19,0.92-2.01,0.8c0-3.24,0-6.48,0-9.72
	c0.48-0.06,0.9-0.25,1.32-0.49c7.26-4.2,14.53-8.41,21.81-12.58c0.89-0.51,1.27-1.14,1.27-2.19c-0.03-9.17-0.04-18.33,0.01-27.5
	c0.01-1.21-0.42-1.92-1.45-2.51c-7.2-4.12-14.37-8.27-21.55-12.42c-0.44-0.26-0.89-0.48-1.4-0.54c0-3.24,0-6.48,0-9.72
	c0.68-0.15,1.15,0.3,1.66,0.6c6.76,3.89,13.52,7.8,20.27,11.7c3.07,1.77,6.13,3.58,9.22,5.31c0.98,0.55,1.37,1.24,1.36,2.36
	c-0.04,6.08-0.02,12.16-0.02,18.25c0,6.51-0.01,13.01,0,19.52c0,0.55-0.06,1.07-0.24,1.58l0.02,0c-0.08,0.07-0.16,0.14-0.24,0.21
	c-6.17,3.56-12.34,7.12-18.51,10.69C62.17,82.16,60.79,82.81,59.59,83.74z"/>
<path class="st1" d="M49.95,79.14c0,3.24,0,6.48,0,9.72c-0.46,0-0.85-0.19-1.23-0.41c-2.19-1.27-4.39-2.54-6.59-3.8
	c-0.55-0.31-1.13-0.57-1.7-0.85c-0.16-0.28-0.44-0.41-0.7-0.56c-7.26-4.18-14.51-8.36-21.77-12.54c-0.39-0.58-0.5-1.22-0.49-1.92
	c0.02-6.08,0.01-12.15,0-18.23c0-0.43,0.13-0.89-0.22-1.26c0.34-0.37,0.22-0.83,0.22-1.26c0.01-5.58,0.03-11.16-0.01-16.74
	c-0.01-1.2,0.45-1.93,1.47-2.52c9.88-5.67,19.75-11.38,29.62-17.08c0.44-0.25,0.87-0.53,1.41-0.52c0,3.24,0,6.48,0,9.72l0.01,0.1
	c-0.48-0.11-0.84,0.18-1.22,0.39c-7.31,4.22-14.62,8.45-21.94,12.65c-0.86,0.49-1.23,1.13-1.23,2.13c0.02,9.26,0.02,18.53,0,27.79
	c0,0.91,0.35,1.51,1.14,1.97c7.38,4.24,14.74,8.5,22.11,12.75c0.35,0.2,0.69,0.44,1.13,0.35L49.95,79.14z"/>
<path class="st2" d="M17.24,49.31c0.35,0.37,0.22,0.83,0.22,1.26c0.01,6.08,0.01,12.15,0,18.23c0,0.7,0.11,1.34,0.49,1.92
	c-1.91-0.41-3.73-1.14-5.6-1.7c-0.34-0.1-0.68-0.33-1.06-0.1c-0.68-0.69-1.62-0.83-2.48-1c-2.06-0.42-2.97-1.48-3.25-3.67
	c-0.72-5.66-1.75-11.28-2.65-16.92c-0.25-1.57,0.8-2.49,2.32-1.99C9.24,46.64,13.24,47.98,17.24,49.31z"/>
<path class="st2" d="M82.21,70.5c0.18-0.51,0.24-1.04,0.24-1.58c-0.01-6.51,0-13.01,0-19.52c3.97-1.33,7.94-2.65,11.91-3.98
	c1.96-0.65,2.92,0.2,2.59,2.25c-0.97,6-1.93,12-2.87,18.01c-0.14,0.92-0.6,1.46-1.47,1.72c-1,0.3-2,0.63-2.99,0.95
	c-0.38,0.12-0.78,0.23-1.02,0.6c-0.45-0.31-0.84,0.02-1.24,0.13C85.62,69.52,84.03,70.43,82.21,70.5z"/>
<path class="st3" d="M11.29,68.91c0.38-0.24,0.72-0.01,1.06,0.1c1.87,0.56,3.69,1.29,5.6,1.7c7.26,4.18,14.51,8.36,21.77,12.54
	c0.26,0.15,0.54,0.28,0.7,0.56c-7.64-0.97-15.28-1.94-22.92-2.9c-0.79-0.1-1.31-0.48-1.62-1.2C14.35,76.11,12.82,72.51,11.29,68.91z
	"/>
<path class="st3" d="M82.21,70.5c1.82-0.07,3.41-0.98,5.13-1.42c0.4-0.11,0.79-0.43,1.24-0.13c-1.54,3.63-3.08,7.25-4.62,10.88
	c-0.26,0.61-0.72,0.97-1.38,1.05c-7.5,0.95-14.99,1.91-22.49,2.85c-0.17,0.02-0.34,0.01-0.51,0.01c1.21-0.93,2.58-1.58,3.89-2.34
	c6.16-3.58,12.34-7.13,18.51-10.69c0.08-0.07,0.16-0.14,0.24-0.21C82.23,70.5,82.21,70.5,82.21,70.5z"/>
<path class="st4" d="M82.23,70.5c-0.08,0.07-0.16,0.14-0.24,0.21C82.07,70.64,82.15,70.57,82.23,70.5z"/>
<path class="st5" d="M74.35,36.38c0.01-1.21-0.42-1.92-1.45-2.51c-7.2-4.12-14.37-8.27-21.55-12.42c-0.44-0.26-0.89-0.48-1.4-0.54
	l0.01,0.1c0,3.51,0,7.02,0,10.53h-0.02v35.33h0.01c0,4.06,0,8.12,0,12.17l-0.01,0.1c0.48-0.06,0.9-0.25,1.32-0.49
	c7.26-4.2,14.53-8.41,21.81-12.58c0.89-0.51,1.27-1.14,1.27-2.19C74.31,54.71,74.3,45.54,74.35,36.38z"/>
<path class="st6" d="M49.95,33.79c0.01,0,0.01,0,0.02-0.01c0-4.26,0-8.52,0-12.77c-0.48-0.11-0.84,0.18-1.22,0.39
	c-7.31,4.22-14.62,8.45-21.94,12.65c-0.86,0.49-1.23,1.13-1.23,2.13c0.02,9.26,0.02,18.53,0,27.79c0,0.91,0.35,1.51,1.14,1.97
	c7.38,4.24,14.74,8.5,22.11,12.75c0.35,0.2,0.69,0.44,1.13,0.35c0-6.69,0-13.38,0-20.08c-0.01,0-0.01,0-0.02,0V33.79z"/>
</svg>
