<svg xmlns="http://www.w3.org/2000/svg" width="55.33" height="77.938" viewBox="0 0 55.33 77.938">
  <g id="medal" transform="translate(1 1)" style="isolation: isolate">
    <g id="Path_3" data-name="Path 3" transform="translate(358.149 -247.159)" fill="#cbcbcb">
      <path d="M -339.3683471679688 323.5962524414062 C -340.2100524902344 323.5962524414062 -340.715087890625 323.0660400390625 -341.09814453125 322.5474243164062 L -341.0998229980469 322.5451049804688 L -341.1015014648438 322.5427856445312 C -341.7070922851562 321.7028198242188 -342.2001037597656 320.7860717773438 -342.56689453125 319.8178405761719 C -343.7728881835938 316.7650756835938 -345.96240234375 315.2010192871094 -349.2604675292969 315.0362854003906 L -349.2667846679688 315.0359497070312 L -349.2730712890625 315.0354919433594 C -350.0943603515625 314.9736328125 -350.9132080078125 314.8329772949219 -351.7069702148438 314.617431640625 C -353.3997802734375 314.1841735839844 -353.8802795410156 313.5509033203125 -353.8441162109375 311.7996215820312 C -353.8520812988281 310.8428955078125 -353.6592407226562 309.9272766113281 -353.4726867675781 309.0417175292969 C -353.402099609375 308.7066650390625 -353.3291320800781 308.3601989746094 -353.2698059082031 308.022216796875 C -352.8387756347656 305.5617065429688 -353.6053466796875 303.5372619628906 -355.682373046875 301.6512451171875 L -355.7113647460938 301.6248474121094 C -356.3096923828125 301.0801696777344 -356.9283752441406 300.5169677734375 -357.4914245605469 299.9160461425781 C -359.0442504882812 298.2389221191406 -359.040283203125 297.1051940917969 -357.4777221679688 295.4208984375 C -356.9446716308594 294.8468933105469 -356.37255859375 294.2976989746094 -355.7770385742188 293.7884216308594 C -353.4879455566406 291.8209228515625 -352.7130432128906 289.4332580566406 -353.4089965820312 286.4897766113281 C -353.6643371582031 285.4030456542969 -353.8946228027344 284.2274475097656 -353.852294921875 282.9899291992188 C -353.8204345703125 282.0227966308594 -353.3502197265625 281.3481140136719 -352.4547424316406 280.9852294921875 L -352.4491271972656 280.9829406738281 L -352.4434204101562 280.9808044433594 C -351.3829345703125 280.5808410644531 -350.2711181640625 280.3560485839844 -349.1386413574219 280.3125915527344 C -345.9512634277344 280.1065979003906 -343.8341674804688 278.6076965332031 -342.666259765625 275.7305908203125 C -342.29541015625 274.7719421386719 -341.8147888183594 273.8545532226562 -341.2377319335938 273.0038452148438 L -341.2353820800781 273.0003967285156 L -341.2329711914062 272.9970092773438 C -340.7771911621094 272.3486022949219 -340.2310180664062 271.7485961914062 -339.3287353515625 271.7485961914062 C -338.9867553710938 271.7485961914062 -338.5974426269531 271.8338317871094 -338.1035461425781 272.016845703125 L -338.1007080078125 272.0178833007812 L -338.0979309082031 272.0189514160156 C -337.1972045898438 272.3650207519531 -336.32763671875 272.8031921386719 -335.5131530761719 273.3214416503906 C -334.1752624511719 274.1464538574219 -332.8267211914062 274.5648193359375 -331.5050964355469 274.5648193359375 C -330.1597290039062 274.5648193359375 -328.7800903320312 274.1312561035156 -327.404541015625 273.2762145996094 C -326.5126342773438 272.7088317871094 -325.5544128417969 272.244384765625 -324.5564880371094 271.8958435058594 C -324.2588806152344 271.7946166992188 -323.9744567871094 271.7439880371094 -323.7072143554688 271.7439880371094 C -323.0320129394531 271.7439880371094 -322.4474182128906 272.057861328125 -321.9696960449219 272.6769104003906 L -321.9664611816406 272.6811218261719 L -321.9632873535156 272.6854248046875 C -321.2957458496094 273.589599609375 -320.7573547363281 274.5814819335938 -320.3630676269531 275.633544921875 C -319.1838989257812 278.5833129882812 -317.0277709960938 280.1123046875 -313.7713928222656 280.3075866699219 C -312.7012939453125 280.3589477539062 -311.6468505859375 280.5671081542969 -310.6371459960938 280.9263305664062 L -310.6338195800781 280.927490234375 L -310.6305236816406 280.9287414550781 C -309.65283203125 281.2921752929688 -309.1611022949219 281.9862976074219 -309.1272277832031 283.0508117675781 C -309.0933532714844 284.1940307617188 -309.3124694824219 285.2862548828125 -309.5243530273438 286.3424682617188 C -309.5914001464844 286.6766967773438 -309.6607360839844 287.0222778320312 -309.7199096679688 287.3604736328125 C -310.1350708007812 289.7872619628906 -309.3711547851562 291.790283203125 -307.3154296875 293.6622009277344 C -306.7048034667969 294.2199096679688 -306.0133666992188 294.8514709472656 -305.3893127441406 295.5370178222656 C -304.6360168457031 296.3721313476562 -304.3173522949219 297.0139770507812 -304.3222351074219 297.6848754882812 C -304.3271179199219 298.3516845703125 -304.6526794433594 298.9931335449219 -305.4108276367188 299.8297119140625 C -305.9526062011719 300.4362487792969 -306.5431213378906 301.0137634277344 -307.1635437011719 301.5435485839844 C -309.4890747070312 303.5035705566406 -310.2700805664062 305.9068298339844 -309.5534362792969 308.8929748535156 C -309.2618408203125 310.0051879882812 -309.1155090332031 311.152099609375 -309.1184387207031 312.3020935058594 L -309.1184387207031 312.3072204589844 L -309.1185607910156 312.3123474121094 C -309.1417846679688 313.3186645507812 -309.6282348632812 314.0147399902344 -310.5644226074219 314.3811645507812 L -310.5704956054688 314.383544921875 L -310.5765991210938 314.3857421875 C -311.6421203613281 314.7711486816406 -312.7564392089844 314.9888305664062 -313.8885803222656 315.0328063964844 C -317.0416564941406 315.2459411621094 -319.14111328125 316.7288513183594 -320.3062438964844 319.5664367675781 C -320.7137145996094 320.6398010253906 -321.2594909667969 321.6568908691406 -321.9284973144531 322.5895690917969 L -321.9321594238281 322.5946655273438 L -321.9359436035156 322.5996704101562 C -322.4296569824219 323.2526550292969 -323.0284423828125 323.5837707519531 -323.7156982421875 323.5837707519531 C -323.991943359375 323.5837707519531 -324.2867736816406 323.5292358398438 -324.5919494628906 323.4217224121094 C -325.5859680175781 323.0622253417969 -326.5404357910156 322.5968933105469 -327.4327392578125 322.0372619628906 C -328.7894897460938 321.2030334472656 -330.1553649902344 320.7788696289062 -331.4886169433594 320.7788696289062 C -332.8263244628906 320.7788696289062 -334.1893310546875 321.2060852050781 -335.5396118164062 322.0485229492188 C -336.4291687011719 322.6310424804688 -337.3925476074219 323.09423828125 -338.4032287597656 323.42529296875 L -338.4084167480469 323.427001953125 L -338.4136352539062 323.4285888671875 C -338.7904663085938 323.54296875 -339.0938415527344 323.5962524414062 -339.3683471679688 323.5962524414062 Z M -331.5154418945312 279.0484008789062 C -341.725341796875 279.0484008789062 -350.0681762695312 287.3743591308594 -350.1129760742188 297.6083374023438 C -350.1346435546875 302.5510559082031 -348.2069091796875 307.2232360839844 -344.6849060058594 310.7641906738281 C -341.1552124023438 314.3128051757812 -336.4819946289062 316.269775390625 -331.5260314941406 316.2746276855469 L -331.5077819824219 316.2746276855469 C -321.260498046875 316.2746276855469 -312.9034118652344 307.927001953125 -312.8784484863281 297.6663818359375 C -312.8601684570312 287.4516296386719 -321.1765747070312 279.1002502441406 -331.4214172363281 279.0486450195312 L -331.5154418945312 279.0484008789062 Z" stroke="none"/>
      <path d="M -339.3683471679688 323.0962524414062 C -339.1351928710938 323.0962524414062 -338.8717956542969 323.0451354980469 -338.5588684082031 322.9501342773438 C -337.5880737304688 322.6321411132812 -336.6634826660156 322.1873779296875 -335.8091125488281 321.6273193359375 C -332.9260864257812 319.8265380859375 -330.0568237304688 319.8368225097656 -327.1670837402344 321.6136779785156 C -326.3034057617188 322.1553344726562 -325.3844604492188 322.6033935546875 -324.42578125 322.9501342773438 C -323.529541015625 323.2658081054688 -322.8742065429688 323.0115966796875 -322.3347778320312 322.2981262207031 C -321.6893310546875 321.3982849121094 -321.1637878417969 320.418212890625 -320.7713317871094 319.3827514648438 C -319.5098571777344 316.3052062988281 -317.2055358886719 314.753662109375 -313.9147033691406 314.533447265625 C -312.8331298828125 314.4921264648438 -311.7644653320312 314.28369140625 -310.7466735839844 313.9155578613281 C -309.9922485351562 313.6202697753906 -309.6371459960938 313.111572265625 -309.6184387207031 312.3008117675781 C -309.6156005859375 311.1920166015625 -309.7567138671875 310.0875244140625 -310.038330078125 309.0150146484375 C -310.7944641113281 305.8709411621094 -309.9751586914062 303.2593688964844 -307.4882202148438 301.1632995605469 C -306.88232421875 300.6459350585938 -306.3120727539062 300.088134765625 -305.7813110351562 299.4939575195312 C -304.5113525390625 298.0926208496094 -304.5011291503906 297.2681274414062 -305.7590637207031 295.8735961914062 C -306.3479614257812 295.2266540527344 -307.0017700195312 294.6258544921875 -307.6520690917969 294.0318908691406 C -309.6559448242188 292.2071838378906 -310.6869506835938 290.0479736328125 -310.2124328613281 287.2742614746094 C -309.9683227539062 285.8797302246094 -309.5842895507812 284.5073852539062 -309.6269836425781 283.0667114257812 C -309.6542358398438 282.2099304199219 -310.01953125 281.6892700195312 -310.8047180175781 281.3973999023438 C -311.7682800292969 281.0545959472656 -312.7770690917969 280.8555603027344 -313.7986145019531 280.8068542480469 C -317.1987609863281 280.6036682128906 -319.555908203125 279.0043029785156 -320.829345703125 275.8141479492188 C -321.2075500488281 274.8035583496094 -321.724609375 273.8505249023438 -322.3655395507812 272.9823913574219 C -322.8963928222656 272.2944946289062 -323.5484924316406 272.0811767578125 -324.3916320800781 272.3678894042969 C -325.3552856445312 272.7044677734375 -326.2768859863281 273.1512451171875 -327.1380310058594 273.6992797851562 C -330.01416015625 275.4881591796875 -332.8766174316406 275.535888671875 -335.7783203125 273.7453308105469 C -336.5671691894531 273.2431030273438 -337.404296875 272.8210754394531 -338.2772521972656 272.4856872558594 C -339.516357421875 272.0265808105469 -340.0643615722656 272.2040405273438 -340.8239440917969 273.2845458984375 C -341.38134765625 274.1062622070312 -341.8434753417969 274.9886474609375 -342.2014465332031 275.9148864746094 C -343.4645385742188 279.0299377441406 -345.7841796875 280.5985717773438 -349.1126708984375 280.8119506835938 C -350.1915588378906 280.8526306152344 -351.2567443847656 281.067626953125 -352.2669677734375 281.4486389160156 C -352.9787292480469 281.737060546875 -353.3269348144531 282.2286376953125 -353.3525695800781 283.0070190429688 C -353.3918762207031 284.1557922363281 -353.181884765625 285.2703857421875 -352.9224243164062 286.3747253417969 C -352.1850891113281 289.4931945800781 -353.0214233398438 292.0792541503906 -355.4520874023438 294.1683959960938 C -356.03515625 294.6670532226562 -356.589111328125 295.1987609863281 -357.1111755371094 295.7609558105469 C -358.4920349121094 297.2493896484375 -358.4920349121094 298.0993957519531 -357.1265563964844 299.5741882324219 C -356.5683898925781 300.1698913574219 -355.9555969238281 300.7263488769531 -355.3462524414062 301.2810668945312 C -353.3236083984375 303.1177062988281 -352.2857360839844 305.3025207519531 -352.77734375 308.108642578125 C -352.992431640625 309.334228515625 -353.3559875488281 310.5409851074219 -353.3440856933594 311.8024597167969 C -353.37646484375 313.3079223632812 -353.0624694824219 313.7550964355469 -351.5791320800781 314.134033203125 C -350.8125 314.3424377441406 -350.0278015136719 314.4772338867188 -349.2355346679688 314.5368957519531 C -345.7500610351562 314.7109985351562 -343.3808898925781 316.3939514160156 -342.1007080078125 319.6370849609375 C -341.7491455078125 320.5660705566406 -341.2768249511719 321.4446716308594 -340.6959228515625 322.2503662109375 C -340.2596130371094 322.8411560058594 -339.8893737792969 323.0962524414062 -339.3683471679688 323.0962524414062 M -331.5154418945312 278.5484008789062 C -331.4834594726562 278.5484008789062 -331.450927734375 278.5484924316406 -331.4189147949219 278.5486450195312 C -320.9317321777344 278.6014709472656 -312.3545532226562 287.2179565429688 -312.3784484863281 297.6761474609375 L -312.3784484863281 297.6676025390625 C -312.404052734375 308.191650390625 -321.0130004882812 316.7746276855469 -331.5077819824219 316.7746276855469 C -331.5135498046875 316.7746276855469 -331.520751953125 316.7746276855469 -331.5265197753906 316.7746276855469 C -342.029052734375 316.7643737792969 -350.6590576171875 308.1240539550781 -350.6129760742188 297.6061401367188 C -350.5670776367188 287.1203002929688 -341.9595031738281 278.5484008789062 -331.5154418945312 278.5484008789062 M -339.3683471679688 324.0962524414062 C -340.4385986328125 324.0962524414062 -341.0699157714844 323.42724609375 -341.5003356933594 322.8444519042969 L -341.507080078125 322.835205078125 C -342.1375732421875 321.9607238769531 -342.6510009765625 321.0063171386719 -343.0331726074219 319.9984436035156 C -344.1597900390625 317.1492919921875 -346.2049865722656 315.6895141601562 -349.2854309082031 315.53564453125 L -349.3106384277344 315.5340881347656 C -350.1620178222656 315.469970703125 -351.0108642578125 315.3242797851562 -351.8338623046875 315.10107421875 C -352.5835876464844 314.9090881347656 -353.3435363769531 314.6408996582031 -353.8307189941406 313.98974609375 C -354.3064880371094 313.3538208007812 -354.3597106933594 312.5604248046875 -354.3441772460938 311.7962646484375 C -354.3515625 310.7882385253906 -354.1535034179688 309.8480529785156 -353.9619445800781 308.9386596679688 C -353.8890075683594 308.5924377441406 -353.8201293945312 308.2654418945312 -353.7622985839844 307.935791015625 C -353.3636779785156 305.6605224609375 -354.0805969238281 303.7810974121094 -356.0184936523438 302.0213928222656 L -356.0479431152344 301.9945983886719 C -356.6535034179688 301.443359375 -357.2796630859375 300.8733520507812 -357.8562927246094 300.2579345703125 L -357.8603210449219 300.2535705566406 C -358.4993591308594 299.5633850097656 -359.1521911621094 298.7166137695312 -359.1487426757812 297.6694030761719 C -359.1452941894531 296.6236877441406 -358.4873962402344 295.7740478515625 -357.8442687988281 295.0808410644531 C -357.298095703125 294.49267578125 -356.7120361328125 293.9301147460938 -356.1020202636719 293.4084167480469 C -353.9690856933594 291.5751342773438 -353.2467346191406 289.3491516113281 -353.8955993652344 286.6048278808594 C -354.1589965820312 285.4837036132812 -354.3963317871094 284.2688903808594 -354.3519897460938 282.9728393554688 C -354.3135986328125 281.8074340820312 -353.7224731445312 280.9594421386719 -352.6425170898438 280.5218505859375 L -352.619873046875 280.5129699707031 C -351.5108947753906 280.0947265625 -350.3482971191406 279.8593139648438 -349.1640930175781 279.8132019042969 C -346.1516723632812 279.6166076660156 -344.2340698242188 278.2603149414062 -343.131103515625 275.54638671875 C -342.7467956542969 274.5538330078125 -342.2490234375 273.60400390625 -341.6514892578125 272.7231750488281 L -341.6420288085938 272.7094421386719 C -341.1342163085938 271.9870910644531 -340.4622497558594 271.2485961914062 -339.3287353515625 271.2485961914062 C -338.9255676269531 271.2485961914062 -338.4810485839844 271.34375 -337.9298095703125 271.5480041503906 L -337.9186096191406 271.5522155761719 C -336.9879760742188 271.9097595214844 -336.0894165039062 272.3623962402344 -335.2477722167969 272.8976440429688 C -333.9733276367188 273.6830444335938 -332.7490539550781 274.0648193359375 -331.5050964355469 274.0648193359375 C -330.2373657226562 274.0648193359375 -328.9828796386719 273.6682739257812 -327.6702270507812 272.8526306152344 C -326.7466735839844 272.2654113769531 -325.7545471191406 271.78466796875 -324.7213745117188 271.423828125 L -324.7135620117188 271.421142578125 C -324.3678894042969 271.3035888671875 -324.029296875 271.2439880371094 -323.7072143554688 271.2439880371094 C -323.1308898925781 271.2439880371094 -322.29296875 271.4395751953125 -321.5738525390625 272.3714599609375 L -321.56103515625 272.388427734375 C -320.8670654296875 273.3284606933594 -320.3071594238281 274.359375 -319.8967895507812 275.4529418945312 C -318.7817687988281 278.2381286621094 -316.826416015625 279.6224365234375 -313.7449645996094 279.8082580566406 C -312.6266784667969 279.8621826171875 -311.5247497558594 280.079833984375 -310.4695434570312 280.4552612304688 L -310.456298828125 280.4600524902344 C -309.2832641601562 280.8960876464844 -308.66796875 281.7624206542969 -308.6275024414062 283.034912109375 C -308.5918884277344 284.2363586425781 -308.8167114257812 285.3570251464844 -309.0341186523438 286.4408264160156 C -309.1005554199219 286.7720642089844 -309.1692810058594 287.1145629882812 -309.2274169921875 287.4466857910156 C -309.6107482910156 289.6875305175781 -308.8964538574219 291.5462951660156 -306.9787902832031 293.2925109863281 C -306.359619140625 293.8580322265625 -305.6591186523438 294.4978332519531 -305.0195617675781 295.200439453125 C -303.41162109375 296.9830017089844 -303.4176635742188 298.3737487792969 -305.0382995605469 300.1632690429688 C -305.5966796875 300.7880554199219 -306.2024536132812 301.3803405761719 -306.8388671875 301.9237670898438 L -306.84375 301.9279479980469 C -309.0068664550781 303.7510681152344 -309.734619140625 305.9896240234375 -309.0682983398438 308.7717590332031 C -308.7667541503906 309.9239807128906 -308.6153869628906 311.1121520996094 -308.6184387207031 312.3033752441406 L -308.6187133789062 312.3238830566406 C -308.6466064453125 313.5337219238281 -309.2564086914062 314.4061279296875 -310.3821716308594 314.8467712402344 L -310.4065551757812 314.8559265136719 C -311.5181579589844 315.2579956054688 -312.680419921875 315.4854736328125 -313.8614501953125 315.5321350097656 C -316.840087890625 315.7351684570312 -318.7408752441406 317.075927734375 -319.841064453125 319.7499084472656 C -320.263671875 320.8615417480469 -320.8292236328125 321.9148559570312 -321.522216796875 322.8809814453125 L -321.537109375 322.9012145996094 C -322.13037109375 323.6859130859375 -322.8633728027344 324.0837707519531 -323.7156982421875 324.0837707519531 C -324.0486755371094 324.0837707519531 -324.3994140625 324.0196838378906 -324.7580871582031 323.893310546875 L -324.7658996582031 323.8905334472656 C -325.7879028320312 323.5208740234375 -326.7731628417969 323.0407104492188 -327.6943664550781 322.46337890625 C -328.9737854003906 321.6773986816406 -330.2503356933594 321.2788696289062 -331.4886169433594 321.2788696289062 C -332.7298278808594 321.2788696289062 -334.002197265625 321.6796264648438 -335.2703857421875 322.4698791503906 C -336.1953430175781 323.0750122070312 -337.1969604492188 323.5563049316406 -338.2475891113281 323.9004516601562 L -338.2684326171875 323.9070434570312 C -338.6936950683594 324.0361328125 -339.043212890625 324.0962524414062 -339.3683471679688 324.0962524414062 Z M -331.5154418945312 279.5484008789062 C -341.4508666992188 279.5484008789062 -349.5693664550781 287.6510314941406 -349.6129760742188 297.6105346679688 C -349.6340637207031 302.4194030761719 -347.7579956054688 306.9655456542969 -344.3303833007812 310.4115600585938 C -340.8951416015625 313.8652954101562 -336.3476257324219 315.7699279785156 -331.5255432128906 315.7746276855469 L -331.5077819824219 315.7746276855469 C -321.5355529785156 315.7746276855469 -313.4027709960938 307.6507568359375 -313.3784484863281 297.6651611328125 C -313.3606567382812 287.7252502441406 -321.4539489746094 279.5988464355469 -331.4239501953125 279.5486450195312 L -331.5154418945312 279.5484008789062 Z" stroke="none" fill="#fff"/>
    </g>
    <g id="Path_4" data-name="Path 4" transform="translate(255.091 -125.355)" fill="#808080">
      <path d="M -228.4123992919922 151.0248260498047 C -229.4297180175781 151.0248260498047 -230.4672698974609 150.7125549316406 -231.4962310791016 150.0967254638672 C -232.0476531982422 149.7651977539062 -232.6228790283203 149.465576171875 -233.2318572998047 149.1483764648438 C -233.5176696777344 148.99951171875 -233.8132019042969 148.8455657958984 -234.1162567138672 148.68310546875 L -234.3800201416016 148.5417022705078 L -234.3800201416016 148.242431640625 L -234.3800201416016 125.369987487793 L -234.3800201416016 124.869987487793 L -233.8800201416016 124.869987487793 L -223.0565948486328 124.869987487793 L -222.8305053710938 124.869987487793 L -222.6811676025391 125.0397491455078 C -222.4167633056641 125.3403396606445 -222.4515991210938 125.6829528808594 -222.4723968505859 125.8876495361328 C -222.4770355224609 125.9333648681641 -222.4814300537109 125.9765319824219 -222.4814300537109 126.0066680908203 C -222.4814300537109 133.0552978515625 -222.4814300537109 140.3439178466797 -222.4609832763672 147.5121459960938 C -222.4609832763672 148.3079528808594 -222.7674255371094 148.78076171875 -223.4854583740234 149.0938262939453 C -224.1579437255859 149.397216796875 -224.8164367675781 149.7490844726562 -225.4427795410156 150.1397247314453 L -225.4464416503906 150.1420135498047 L -225.4501342773438 150.1442260742188 C -226.4239959716797 150.7285461425781 -227.4206390380859 151.0248260498047 -228.4123992919922 151.0248260498047 Z" stroke="none"/>
      <path d="M -228.4123992919922 150.5248260498047 C -227.5148468017578 150.5248260498047 -226.6150360107422 150.2600708007812 -225.7073822021484 149.7154846191406 C -225.0591583251953 149.3112030029297 -224.3845672607422 148.9507751464844 -223.6881256103516 148.63671875 C -223.1538848876953 148.4045867919922 -222.9609832763672 148.1195220947266 -222.9609832763672 147.5135803222656 C -222.9814300537109 140.3446197509766 -222.9814300537109 133.1756439208984 -222.9814300537109 126.0066680908203 C -222.9814300537109 125.7915802001953 -222.8944244384766 125.5543518066406 -223.0565948486328 125.369987487793 L -233.8800201416016 125.369987487793 L -233.8800201416016 148.242431640625 C -232.9344024658203 148.7493743896484 -232.0655975341797 149.1709899902344 -231.2394561767578 149.6676940917969 C -230.2944488525391 150.2332916259766 -229.3546447753906 150.5248260498047 -228.4123992919922 150.5248260498047 M -228.4123992919922 151.5248260498047 C -229.5214080810547 151.5248260498047 -230.6453552246094 151.1886749267578 -231.7530059814453 150.5257568359375 C -232.2921905517578 150.2015838623047 -232.8608245849609 149.9053955078125 -233.4628295898438 149.5918273925781 C -233.7499389648438 149.4422760009766 -234.0468292236328 149.2876434326172 -234.3525085449219 149.1237640380859 L -234.8800201416016 148.8409729003906 L -234.8800201416016 124.369987487793 L -222.6044006347656 124.369987487793 L -222.3057403564453 124.7095184326172 C -221.8972625732422 125.1738891601562 -221.9517059326172 125.7095031738281 -221.9749603271484 125.9382095336914 C -221.9775390625 125.9635543823242 -221.9810638427734 125.9982528686523 -221.9814758300781 126.0104522705078 C -221.9814300537109 133.0549468994141 -221.9814300537109 140.3431854248047 -221.9609832763672 147.5107269287109 C -221.9609832763672 148.5091400146484 -222.3809509277344 149.1566772460938 -223.2826080322266 149.5508270263672 C -223.9338684082031 149.8448028564453 -224.5715637207031 150.1856536865234 -225.1781921386719 150.5639801025391 L -225.1928863525391 150.5729675292969 C -226.2455291748047 151.2045745849609 -227.3287353515625 151.5248260498047 -228.4123992919922 151.5248260498047 Z" stroke="none" fill="#fff"/>
    </g>
    <g id="Path_5" data-name="Path 5" transform="translate(281.522 -125.371)" fill="#808080">
      <path d="M -266.25 150.1769409179688 L -266.25 149.0680999755859 L -266.25 125.3899841308594 L -266.25 124.8899841308594 L -265.75 124.8899841308594 L -263.1043701171875 124.8899841308594 L -262.6043701171875 124.8899841308594 L -262.6043701171875 125.3899841308594 L -262.6043701171875 147.7793731689453 L -262.6043701171875 148.2390594482422 L -263.0624389648438 148.2776184082031 C -263.876953125 148.3461761474609 -264.5596923828125 148.6837615966797 -265.4189758300781 149.4428405761719 L -266.25 150.1769409179688 Z" stroke="none"/>
      <path d="M -265.75 149.0680999755859 C -264.959716796875 148.3699951171875 -264.1591796875 147.8681640625 -263.1043701171875 147.7793731689453 L -263.1043701171875 125.3899841308594 L -265.75 125.3899841308594 L -265.75 149.0680999755859 M -266.75 151.2857818603516 L -266.75 124.3899841308594 L -262.1043701171875 124.3899841308594 L -262.1043701171875 148.69873046875 L -263.0204772949219 148.7758483886719 C -263.7178039550781 148.8345489501953 -264.3168029785156 149.1363525390625 -265.0879516601562 149.8175659179688 L -266.75 151.2857818603516 Z" stroke="none" fill="#fff"/>
    </g>
    <g id="Path_6" data-name="Path 6" transform="translate(188.581 -125.28)" fill="#808080">
      <path d="M -150.5582122802734 149.9866027832031 L -151.3730773925781 149.3260040283203 C -152.1836853027344 148.6688690185547 -152.8585357666016 148.2487945556641 -153.7169952392578 148.1850891113281 L -154.1799926757812 148.1507415771484 L -154.1799926757812 147.6864624023438 L -154.1799926757812 125.2799987792969 L -154.1799926757812 124.7799987792969 L -153.6799926757812 124.7799987792969 L -151.0582122802734 124.7799987792969 L -150.5582122802734 124.7799987792969 L -150.5582122802734 125.2799987792969 L -150.5582122802734 148.9376068115234 L -150.5582122802734 149.9866027832031 Z" stroke="none"/>
      <path d="M -153.6799926757812 125.2799987792969 L -153.6799926757812 147.6864624023438 C -152.6217193603516 147.7649841308594 -151.8246307373047 148.3162841796875 -151.0582122802734 148.9376068115234 L -151.0582122802734 125.2799987792969 L -153.6799926757812 125.2799987792969 M -154.6799926757812 124.2799987792969 L -150.0582122802734 124.2799987792969 L -150.0582122802734 151.0356140136719 L -151.6879425048828 149.7144165039062 C -152.4424591064453 149.1027526855469 -153.0223999023438 148.7380065917969 -153.7539825439453 148.6837158203125 L -154.6799926757812 148.6150054931641 L -154.6799926757812 124.2799987792969 Z" stroke="none" fill="#fff"/>
    </g>
    <g id="Path_7" data-name="Path 7" transform="translate(308.275 -291.026)" fill="#32b0eb">
      <path d="M -281.7146301269531 358.4124755859375 L -281.751220703125 358.4124450683594 C -286.2493591308594 358.4039306640625 -290.4660339355469 356.63232421875 -293.6243896484375 353.4239501953125 C -296.7808837890625 350.2174682617188 -298.5159912109375 345.94580078125 -298.5100402832031 341.3958740234375 C -298.5024108886719 336.9163818359375 -296.7386474609375 332.7073364257812 -293.5437316894531 329.5438537597656 C -290.3499145507812 326.3815307617188 -286.1054382324219 324.6399536132812 -281.5921325683594 324.6399536132812 L -281.5791015625 324.6399536132812 C -277.0807495117188 324.6399536132812 -272.8511657714844 326.3917846679688 -269.669921875 329.5727233886719 C -266.4886474609375 332.7536315917969 -264.7363891601562 336.9830017089844 -264.7359313964844 341.4817199707031 C -264.7359313964844 346.0487060546875 -266.4906311035156 350.3129577636719 -269.6768188476562 353.489013671875 C -272.8618774414062 356.6639709472656 -277.1369934082031 358.4124755859375 -281.7146301269531 358.4124755859375 Z" stroke="none"/>
      <path d="M -281.5921325683594 325.1399536132812 C -290.649658203125 325.1399536132812 -297.9947204589844 332.4123229980469 -298.0100402832031 341.3965148925781 C -298.02197265625 350.5300903320312 -290.7728271484375 357.8953857421875 -281.7501831054688 357.9124450683594 C -281.7378234863281 357.9124755859375 -281.7269592285156 357.9124755859375 -281.7146301269531 357.9124755859375 C -272.5267028808594 357.9124755859375 -265.2359313964844 350.649169921875 -265.2359313964844 341.4817810058594 C -265.2368774414062 332.4562072753906 -272.5538635253906 325.1399841308594 -281.5794677734375 325.1399536132812 C -281.5838928222656 325.1399536132812 -281.5877075195312 325.1399536132812 -281.5921325683594 325.1399536132812 M -281.5921325683594 324.1399536132812 L -281.5794677734375 324.1399536132812 C -279.2387084960938 324.1399536132812 -276.9674377441406 324.5986022949219 -274.8287048339844 325.5031433105469 C -272.7634582519531 326.3766174316406 -270.9088439941406 327.6268615722656 -269.3163757324219 329.2191467285156 C -267.7239379882812 330.8114318847656 -266.4734802246094 332.6659240722656 -265.5997924804688 334.7310791015625 C -264.6950378417969 336.8697204589844 -264.2361755371094 339.1409301757812 -264.2359313964844 341.4816589355469 C -264.2359313964844 346.1825561523438 -266.0428466796875 350.5725708007812 -269.3238220214844 353.8431396484375 C -272.603271484375 357.1121520996094 -277.0037231445312 358.9124755859375 -281.7146301269531 358.9124755859375 L -281.7526245117188 358.9124450683594 C -286.3849792480469 358.9036865234375 -290.7278442382812 357.0790710449219 -293.980712890625 353.7747192382812 C -297.2300415039062 350.4739379882812 -299.0161437988281 346.0774841308594 -299.0100402832031 341.3952026367188 C -299.0060729980469 339.063232421875 -298.5422058105469 336.8016357421875 -297.6313781738281 334.6728515625 C -296.7519836425781 332.6175231933594 -295.4950561523438 330.7723388671875 -293.8955078125 329.1885681152344 C -292.2965698242188 327.6053771972656 -290.4350891113281 326.3624267578125 -288.36279296875 325.4942932128906 C -286.2175903320312 324.5956115722656 -283.9396057128906 324.1399536132812 -281.5921325683594 324.1399536132812 Z" stroke="none" fill="#fff"/>
    </g>
  </g>
</svg>
