<?xml version="1.0" encoding="utf-8"?>
<!-- Generator: Adobe Illustrator 25.0.1, SVG Export Plug-In . SVG Version: 6.00 Build 0)  -->
<svg version="1.1" id="Layer_1" xmlns="http://www.w3.org/2000/svg" xmlns:xlink="http://www.w3.org/1999/xlink" x="0px" y="0px"
	 viewBox="0 0 55.3 77.9" style="enable-background:new 0 0 55.3 77.9;" xml:space="preserve">
<style type="text/css">
	.st0{fill:#FFFFFF;}
	.st1{opacity:0.8;}
	.st2{opacity:0.6;}
	.st3{opacity:0.5;}
</style>
<g id="Path_3" transform="translate(358.149 -247.159)">
	<path class="st0" d="M-338.4,324.6c-0.8,0-1.3-0.5-1.7-1l0,0l0,0c-0.6-0.8-1.1-1.8-1.5-2.7c-1.2-3.1-3.4-4.6-6.7-4.8l0,0l0,0
		c-0.8-0.1-1.6-0.2-2.4-0.4c-1.7-0.4-2.2-1.1-2.1-2.8c0-1,0.2-1.9,0.4-2.8c0.1-0.3,0.1-0.7,0.2-1c0.4-2.5-0.3-4.5-2.4-6.4l0,0
		c-0.6-0.5-1.2-1.1-1.8-1.7c-1.6-1.7-1.5-2.8,0-4.5c0.5-0.6,1.1-1.1,1.7-1.6c2.3-2,3.1-4.4,2.4-7.3c-0.3-1.1-0.5-2.3-0.4-3.5
		c0-1,0.5-1.6,1.4-2l0,0l0,0c1.1-0.4,2.2-0.6,3.3-0.7c3.2-0.2,5.3-1.7,6.5-4.6c0.4-1,0.9-1.9,1.4-2.7l0,0l0,0c0.5-0.6,1-1.2,1.9-1.2
		c0.3,0,0.7,0.1,1.2,0.3l0,0l0,0c0.9,0.3,1.8,0.8,2.6,1.3c1.3,0.8,2.7,1.2,4,1.2s2.7-0.4,4.1-1.3c0.9-0.6,1.9-1,2.8-1.4
		c0.3-0.1,0.6-0.2,0.8-0.2c0.7,0,1.3,0.3,1.7,0.9l0,0l0,0c0.7,0.9,1.2,1.9,1.6,2.9c1.2,2.9,3.3,4.5,6.6,4.7c1.1,0.1,2.1,0.3,3.1,0.6
		l0,0l0,0c1,0.4,1.5,1.1,1.5,2.1c0,1.1-0.2,2.2-0.4,3.3c-0.1,0.3-0.1,0.7-0.2,1c-0.4,2.4,0.3,4.4,2.4,6.3c0.6,0.6,1.3,1.2,1.9,1.9
		c0.8,0.8,1.1,1.5,1.1,2.1c0,0.7-0.3,1.3-1.1,2.1c-0.5,0.6-1.1,1.2-1.8,1.7c-2.3,2-3.1,4.4-2.4,7.3c0.3,1.1,0.4,2.3,0.4,3.4l0,0l0,0
		c0,1-0.5,1.7-1.4,2.1l0,0l0,0c-1.1,0.4-2.2,0.6-3.3,0.6c-3.2,0.2-5.3,1.7-6.4,4.5c-0.4,1.1-1,2.1-1.6,3l0,0l0,0
		c-0.5,0.7-1.1,1-1.8,1c-0.3,0-0.6-0.1-0.9-0.2c-1-0.4-1.9-0.8-2.8-1.4c-1.4-0.8-2.7-1.3-4.1-1.3c-1.3,0-2.7,0.4-4.1,1.3
		c-0.9,0.6-1.9,1-2.9,1.4l0,0l0,0C-337.8,324.5-338.1,324.6-338.4,324.6z M-330.5,280c-10.2,0-18.6,8.3-18.6,18.6
		c0,4.9,1.9,9.6,5.4,13.2c3.5,3.5,8.2,5.5,13.2,5.5l0,0c10.2,0,18.6-8.3,18.6-18.6C-311.9,288.5-320.2,280.1-330.5,280L-330.5,280z"
		/>
</g>
<g id="Path_4" transform="translate(255.091 -125.355)" class="st1">
	<path class="st0" d="M-227.4,152c-1,0-2.1-0.3-3.1-0.9c-0.6-0.3-1.1-0.6-1.7-0.9c-0.3-0.1-0.6-0.3-0.9-0.5l-0.3-0.1v-0.3v-22.9
		v-0.5h0.5h10.8h0.2l0.1,0.2c0.3,0.3,0.2,0.6,0.2,0.8v0.1c0,7,0,14.3,0,21.5c0,0.8-0.3,1.3-1,1.6s-1.3,0.7-2,1l0,0l0,0
		C-225.4,151.7-226.4,152-227.4,152z"/>
</g>
<g id="Path_5" transform="translate(281.522 -125.371)" class="st2">
	<path class="st0" d="M-265.2,151.2v-1.1v-23.7v-0.5h0.5h2.6h0.5v0.5v22.4v0.5h-0.5c-0.8,0.1-1.5,0.4-2.4,1.2L-265.2,151.2z"/>
</g>
<g id="Path_6" transform="translate(188.581 -125.28)" class="st2">
	<path class="st0" d="M-149.6,151l-0.8-0.7c-0.8-0.7-1.5-1.1-2.3-1.1h-0.5v-0.5v-22.4v-0.5h0.5h2.6h0.5v0.5V150V151z"/>
</g>
<g id="Path_7" transform="translate(308.275 -291.026)" class="st3">
	<path class="st0" d="M-280.7,359.4L-280.7,359.4c-4.5,0-8.8-1.8-11.9-5c-3.2-3.2-4.9-7.5-4.9-12s1.8-8.7,5-11.9
		c3.2-3.2,7.4-4.9,12-4.9l0,0c4.5,0,8.7,1.8,11.9,4.9c3.2,3.2,4.9,7.4,4.9,11.9c0,4.6-1.8,8.8-4.9,12
		C-271.9,357.7-276.1,359.4-280.7,359.4z"/>
</g>
</svg>
