<svg id="time" xmlns="http://www.w3.org/2000/svg" width="49.532" height="49.649" viewBox="0 0 49.532 49.649">
  <path id="Path_30" data-name="Path 30" d="M103.773,321.15c-2.618-.376-5.3-.746-7.536-2.212-2.117-1.387-4.008-1.12-6.088-.133-1.325.627-2.741,1.062-4.112,1.591a1.116,1.116,0,0,1-1.226-.026c-.429-.356-.244-.785-.123-1.213.689-2.426,1.351-4.853,2.066-7.279a3.324,3.324,0,0,0-.25-2.528c-3.283-6.808-3.4-13.728.1-20.384a20.622,20.622,0,0,1,16.514-11.34c9.667-1.187,19.263,4.984,22.441,14.7a26.975,26.975,0,0,1,.906,3.925,22.818,22.818,0,0,1-.244,7.409,21.322,21.322,0,0,1-12.154,15.521A21.584,21.584,0,0,1,103.773,321.15Zm-2.1-26.732c.081-.243.145-.433.2-.625a3.631,3.631,0,0,1,7.109.948c.056,1.787-.965,2.936-3.021,3.383a3.113,3.113,0,0,0-2.552,2.526,34.236,34.236,0,0,0-.024,3.438h4.006v-2.036c4.668-1.721,6.585-5.241,5.25-9.526a7.634,7.634,0,0,0-9.3-5.12c-2.972.795-5.883,3.753-5.427,7.013Zm1.746,12.219v3.919h3.9v-3.919Z" transform="translate(-84.011 -277.48)" fill="#33b1e3"/>
  <path id="Path_31" data-name="Path 31" d="M182.14,400.911a26.78,26.78,0,0,0,12.692-2.4,26.1,26.1,0,0,0,14.975-19.047,27.889,27.889,0,0,0,.3-9.092,20.506,20.506,0,0,1,7.077,17.181,19.132,19.132,0,0,1-2.208,7.916,3.806,3.806,0,0,0-.226,3.1c.615,1.963,1.174,3.943,1.749,5.918.136.464.39.938-.114,1.362a1.346,1.346,0,0,1-1.506.1c-1.695-.625-3.427-1.164-5.079-1.883a3.613,3.613,0,0,0-3.39.271,19.783,19.783,0,0,1-10.772,2.516C190.44,406.484,185.783,404.851,182.14,400.911Z" transform="translate(-167.69 -357.243)" fill="#c9cacb"/>
</svg>
