<svg id="Layer_1" data-name="Layer 1" xmlns="http://www.w3.org/2000/svg" viewBox="0 0 94.36 17.92"><path d="M15.14,2h70.3V15.45H15.14Z" transform="translate(-3.13 -2)"/><path d="M14.44,7.09c0,2.65.06,5.19,0,7.72-.06,1.4.22,2.34,1.32,2.94a7.82,7.82,0,0,1,1.74,1.47L4.52,19.7,8.27,13,3.13,7.37Z" transform="translate(-3.13 -2)"/><path d="M86.19,7.09l11.3.28L92.32,13l3.75,6.7-12.94-.47,0-.12c.86-.67,1.7-1.36,2.58-2A1.18,1.18,0,0,0,86.2,16c0-2.71,0-5.42,0-8.12Z" transform="translate(-3.13 -2)"/><path d="M15.31,16.29c1,0,2,0,3.06,0,.11,0,.28.16.33.29.36,1,.71,2.08,1,3.22l-4.41-3.41Z" transform="translate(-3.13 -2)"/><path d="M85.28,16.41,80.8,19.92c.41-1.24.74-2.31,1.11-3.36a.5.5,0,0,1,.4-.27c1,0,2,0,2.93,0Z" transform="translate(-3.13 -2)"/></svg>